<svg version="1.1" id="Layer_1" xmlns="http://www.w3.org/2000/svg" xmlns:xlink="http://www.w3.org/1999/xlink" x="0px" y="0px"
	 width="100%" viewBox="0 0 432 560" enable-background="new 0 0 432 560" xml:space="preserve">
<path fill="#000000" opacity="1.000000" stroke="none" 
	d="
M157.892273,85.700760 
	C164.389114,84.676064 170.442429,83.529221 176.544846,82.784920 
	C178.952133,82.491302 180.048416,81.266251 180.927704,79.352409 
	C183.606155,73.522469 188.430801,70.169853 194.206772,67.932541 
	C204.013016,64.134102 214.341766,63.328220 224.657806,63.351299 
	C237.281906,63.379536 249.990570,63.404030 261.978638,68.534653 
	C267.094574,70.724174 271.292877,73.952713 273.606995,78.952316 
	C275.197418,82.388405 277.617523,83.228439 280.990173,83.734161 
	C297.165405,86.159615 313.031006,89.783714 327.937958,96.821777 
	C343.550751,104.193092 353.116913,116.088753 355.399567,133.426773 
	C355.802155,136.484909 356.745697,138.367294 360.284821,139.198029 
	C371.768250,141.893448 378.510834,149.524689 379.742737,161.134216 
	C380.742157,170.552551 380.799683,180.138840 379.627838,189.563889 
	C378.260468,200.561142 371.835785,207.826324 361.097778,210.640671 
	C357.074738,211.695084 355.696808,213.509033 354.939636,217.576172 
	C351.205811,237.632019 337.544250,248.552948 319.340240,255.067566 
	C306.678345,259.598816 293.668793,262.734528 280.310791,265.007263 
	C288.494934,268.492004 297.058289,270.900970 304.314972,275.888763 
	C312.194153,281.304413 320.562500,284.716614 329.961121,286.945435 
	C344.815094,290.468018 354.771362,301.387878 363.362701,313.328644 
	C377.791992,333.383362 385.822357,356.288208 392.256866,379.842804 
	C394.534424,388.180115 396.656464,396.573578 397.853851,405.143463 
	C399.202942,414.798676 397.887421,424.146729 393.164276,432.737610 
	C384.101044,449.222687 362.321136,451.253998 349.113129,436.926117 
	C339.723236,426.740112 337.082306,413.820953 334.709991,400.807190 
	C334.009674,396.965393 333.174347,393.148163 332.017487,389.307343 
	C327.872070,402.572601 323.513306,415.622925 316.856567,427.750275 
	C301.317902,456.058960 279.467712,476.897003 246.872238,483.236267 
	C207.973175,490.801483 175.993011,477.884003 151.073547,447.503021 
	C135.191360,428.140045 126.487175,405.395081 121.655106,381.035797 
	C121.561707,380.564972 121.389000,380.109863 120.447044,379.515808 
	C118.746445,388.505737 117.086205,397.503571 115.334824,406.483582 
	C113.244965,417.199097 110.243385,427.575531 102.896736,436.058350 
	C95.599617,444.484009 86.444145,448.449860 75.305870,446.236816 
	C63.892834,443.969177 57.767464,436.050995 54.683449,425.417389 
	C52.472782,417.795074 52.044353,410.061279 53.617500,402.203827 
	C58.968876,375.475067 66.561172,349.514954 79.959427,325.573761 
	C86.516426,313.857117 94.454353,303.205719 105.345825,295.071259 
	C113.994865,288.611572 123.565025,284.780182 134.548141,285.300140 
	C135.986633,285.368225 137.159454,285.080780 138.232269,284.174194 
	C148.457642,275.533081 160.450409,270.252625 173.403824,265.890198 
	C169.867813,263.893005 166.180695,264.315216 162.811356,263.447968 
	C159.433975,262.578674 155.979889,262.010956 152.568222,261.270599 
	C141.956879,258.967896 131.678833,255.662766 121.858315,250.993820 
	C107.484482,244.160141 98.592186,232.960205 95.501602,217.357040 
	C94.779114,213.709488 93.423416,211.630371 89.594444,210.529266 
	C78.062485,207.213013 71.366547,198.428589 70.929245,186.267471 
	C70.653984,178.612595 70.689682,170.932785 70.941719,163.275864 
	C71.329941,151.481064 78.531647,142.439850 90.047417,139.319916 
	C93.242813,138.454208 94.448639,137.113998 94.954414,133.704178 
	C97.299263,117.895691 105.337456,105.842613 119.685181,98.314651 
	C131.594269,92.066216 144.396606,88.497055 157.892273,85.700760 
M246.477966,477.887085 
	C249.213501,477.175354 252.016373,476.655609 254.674469,475.723114 
	C296.835663,460.932404 315.209625,427.008911 326.480713,387.485199 
	C325.042450,386.100830 323.090576,387.649048 322.618774,385.245239 
	C324.252411,382.057190 328.285797,380.672760 328.984436,375.959045 
	C331.332031,360.119202 333.005157,344.296204 332.722656,328.261780 
	C332.556580,318.833160 330.088440,310.186310 325.011414,302.298340 
	C314.925323,286.627960 299.671814,278.157104 282.650238,272.275482 
	C280.243408,271.443848 277.837311,269.868378 274.532684,270.984344 
	C274.944946,281.954193 269.224396,289.763733 259.873535,294.417328 
	C238.407257,305.100311 216.570892,305.178802 195.058060,294.416931 
	C186.175354,289.973328 180.455032,282.913605 180.571609,272.285828 
	C180.577835,271.719635 180.073654,271.147858 179.565323,270.062469 
	C162.440353,274.713593 147.043076,281.961975 135.015320,295.261993 
	C128.003494,303.015533 123.287796,312.135437 122.502090,322.498474 
	C121.163696,340.151215 122.761902,357.731140 125.864861,375.169159 
	C126.538933,378.957306 127.449310,382.299042 131.728287,383.504974 
	C132.652161,383.765381 133.467072,384.571960 133.074753,385.646027 
	C132.249786,387.366394 129.952103,386.195984 129.144531,388.402466 
	C129.362289,389.441406 129.601181,390.906738 129.979370,392.335175 
	C133.796677,406.753113 139.433258,420.423523 147.435043,433.017090 
	C169.189880,467.255768 203.898880,486.067413 246.477966,477.887085 
M277.038818,88.460266 
	C263.288055,87.196114 249.554199,85.715210 235.735703,85.339584 
	C218.231628,84.863777 200.775146,85.749397 183.371765,87.487358 
	C165.280045,89.294060 147.505981,92.597733 130.467178,99.302986 
	C111.550583,106.747200 99.309044,120.578278 100.076920,144.104919 
	C100.744919,164.571716 100.757164,185.096313 100.055046,205.560928 
	C99.390266,224.937424 110.780708,240.667801 128.247162,247.875381 
	C155.243179,259.015381 183.680023,261.556641 212.338242,262.547699 
	C233.470688,263.278534 254.613876,262.629425 275.619934,259.670715 
	C292.316010,257.319061 308.704529,253.897614 324.167816,246.845917 
	C342.197723,238.623795 350.743103,224.568939 350.647858,204.890289 
	C350.545502,183.735809 350.748993,162.579636 350.606842,141.425613 
	C350.484619,123.246216 342.296753,110.014336 325.798401,101.997200 
	C310.632996,94.627808 294.360748,91.337509 277.038818,88.460266 
M68.146431,367.552246 
	C66.441330,373.464813 64.515678,379.324341 63.077667,385.301178 
	C60.209114,397.223816 56.238064,409.100830 59.349152,421.615936 
	C61.541077,430.433472 65.731758,437.847870 75.236633,440.427460 
	C84.618347,442.973602 92.230598,439.460052 98.500412,432.598572 
	C103.328537,427.314850 106.235306,420.889587 107.753395,414.014008 
	C110.941917,399.572906 113.834312,385.063873 116.638512,370.542267 
	C117.294472,367.145386 118.985535,363.838440 118.376396,360.289429 
	C116.534523,349.558258 116.650162,338.739960 116.679596,327.919556 
	C116.710938,316.399780 120.301224,306.044250 126.779510,296.585632 
	C127.837311,295.041199 129.662750,293.832794 129.603912,291.410828 
	C128.847107,291.366089 128.191467,291.235748 127.559860,291.309875 
	C126.407143,291.445251 125.252274,291.636353 124.126732,291.917877 
	C111.829445,294.993500 103.154709,303.215118 95.514633,312.618958 
	C82.493668,328.645905 74.895721,347.471558 68.146431,367.552246 
M350.731812,306.764038 
	C343.529602,299.733459 335.976959,293.317688 324.489014,291.434998 
	C326.067596,293.793030 326.980103,295.160522 327.897064,296.525024 
	C332.780731,303.792175 336.330109,311.513702 337.440460,320.372864 
	C339.387207,335.905426 337.477753,351.251404 335.763458,366.616760 
	C335.430023,369.605713 334.799805,372.595367 335.382721,375.549713 
	C337.955139,388.587463 340.481964,401.639160 343.396545,414.602325 
	C344.791992,420.808777 347.724701,426.497101 351.706329,431.521667 
	C363.118011,445.922394 382.701965,443.415527 389.975159,426.638153 
	C391.712250,422.631195 392.533966,418.407501 392.676636,414.034302 
	C393.097076,401.147400 389.180328,389.044708 385.739441,376.910858 
	C378.558685,351.588989 369.162750,327.298767 350.731812,306.764038 
M268.462311,268.276886 
	C266.930664,265.103973 264.153687,266.451904 261.866150,266.628784 
	C242.438721,268.131287 223.013855,268.926483 203.532074,267.594269 
	C197.983322,267.214813 192.386642,267.536224 186.853912,267.536224 
	C185.157227,278.596191 188.133408,285.035919 198.382187,289.993439 
	C217.501602,299.241882 236.928543,299.173187 256.123474,290.150543 
	C264.818146,286.063507 270.106018,279.473694 268.462311,268.276886 
M94.670059,190.489319 
	C94.670059,175.385345 94.670059,160.281372 94.670059,145.222824 
	C85.118568,144.656067 76.777679,153.155518 76.414932,163.557236 
	C76.148239,171.204620 76.193260,178.873398 76.406082,186.524094 
	C76.629562,194.557892 82.781540,202.705978 89.653046,204.876450 
	C92.958580,205.920547 94.810921,205.425110 94.666664,201.468552 
	C94.545456,198.144302 94.659698,194.811478 94.670059,190.489319 
M374.614777,186.903809 
	C374.621307,179.745209 374.948639,172.567444 374.522156,165.434738 
	C374.235321,160.637131 374.950317,154.709366 367.693909,153.624756 
	C367.215820,153.553299 366.789551,152.355652 366.549164,151.613785 
	C365.678284,148.926193 362.965790,147.887039 361.274994,145.942963 
	C359.452515,143.847488 356.246826,146.719543 356.228333,150.873810 
	C356.153595,167.688431 356.185272,184.503616 356.213898,201.318527 
	C356.216095,202.603638 355.981720,204.014038 357.102356,205.064301 
	C365.879913,204.934753 371.602234,199.258270 374.614777,186.903809 
M190.355255,76.687546 
	C189.467041,77.781494 187.866577,78.504631 188.629776,81.192688 
	C214.846512,79.184166 241.240036,79.489014 268.276825,81.811882 
	C264.496490,74.843338 258.720306,72.732796 252.701813,71.322983 
	C239.443176,68.217171 225.955200,68.580376 212.528275,69.625420 
	C204.931717,70.216682 197.302475,71.421181 190.355255,76.687546 
z"/>
<path fill="#000000" opacity="1.000000" stroke="none" 
	d="
M110.627686,171.999908 
	C110.631721,166.501068 110.671005,161.501938 110.632851,156.503418 
	C110.524124,142.260880 117.500771,132.552170 129.983154,126.488678 
	C142.982971,120.173866 156.896011,116.885918 171.073624,114.644989 
	C200.667938,109.967278 230.457397,109.559555 260.225800,111.875168 
	C281.798157,113.553230 303.222351,116.665512 323.279572,125.695129 
	C337.135651,131.933029 344.428894,142.358047 344.379639,157.734818 
	C344.326263,174.397461 344.182251,191.063065 344.420715,207.722488 
	C344.654449,224.052872 336.924927,234.717865 322.236450,241.063446 
	C306.316681,247.940933 289.536743,251.212952 272.465942,253.196136 
	C246.075165,256.261993 219.586395,256.300201 193.150360,254.250290 
	C170.692520,252.508835 148.423752,249.235184 128.051971,238.655731 
	C116.774780,232.799286 110.730103,223.378143 110.654518,210.490707 
	C110.580246,197.827484 110.631439,185.163544 110.627686,171.999908 
M166.696442,190.734787 
	C173.543579,190.167404 180.291794,191.466003 187.090790,191.801865 
	C190.672287,191.978790 193.282166,190.800964 193.680130,186.706345 
	C194.558212,177.672241 190.984207,170.688904 183.476852,165.973541 
	C175.971558,161.259430 168.033646,161.175507 160.314102,165.669708 
	C152.673035,170.118225 149.541672,177.197891 149.586853,185.751556 
	C149.607193,189.603531 151.614563,192.097046 155.835251,191.820557 
	C159.148254,191.603531 162.445786,191.150070 166.696442,190.734787 
M265.604034,171.168961 
	C262.920197,174.325821 261.638702,178.078201 261.152435,182.105774 
	C260.219025,189.836670 262.462982,192.501053 270.165527,191.611267 
	C279.157806,190.572510 288.036316,190.579880 297.016785,191.657852 
	C303.580231,192.445724 306.669464,188.394653 305.312073,181.708084 
	C303.418030,172.378143 297.974243,166.114548 288.894379,163.410416 
	C279.805878,160.703690 272.230865,163.626724 265.604034,171.168961 
M236.249329,222.847198 
	C237.717880,221.682938 238.688309,220.161621 239.474503,218.482727 
	C241.907745,213.286591 240.845734,211.487473 235.110016,211.407883 
	C229.629272,211.331802 224.145096,211.309784 218.665344,211.415298 
	C214.471390,211.496048 213.440094,213.142410 214.791321,217.167694 
	C217.671356,225.747314 227.104568,228.535690 236.249329,222.847198 
z"/>
</svg>