<?xml version="1.0" encoding="UTF-8"?>
<svg xmlns="http://www.w3.org/2000/svg" xmlns:xlink="http://www.w3.org/1999/xlink" width="200px" height="200px" viewBox="0 0 200 200" version="1.1">
<g id="surface1">
<path style=" stroke:none;fill-rule:nonzero;fill:rgb(32.941177%,75.294119%,92.156863%);fill-opacity:1;" d="M 200 100 C 200 44.773438 155.226562 0 100 0 C 44.773438 0 0 44.773438 0 100 C 0 155.226562 44.773438 200 100 200 C 155.226562 200 200 155.226562 200 100 Z M 200 100 "/>
<path style=" stroke:none;fill-rule:nonzero;fill:rgb(51.764709%,85.882354%,100%);fill-opacity:1;" d="M 22.046875 162.675781 C 40.472656 185.511719 68.503906 200 100 200 C 131.496094 200 159.527344 185.511719 177.953125 162.675781 Z M 22.046875 162.675781 "/>
<path style=" stroke:none;fill-rule:nonzero;fill:rgb(19.607843%,29.019609%,36.862746%);fill-opacity:1;" d="M 115.277344 45.039062 C 114.960938 46.457031 114.332031 48.03125 113.542969 49.292969 L 139.371094 74.644531 C 140.628906 73.699219 142.046875 73.070312 143.621094 72.914062 Z M 108.1875 54.644531 L 105.039062 57.636719 L 135.433594 82.363281 C 135.746094 80.628906 136.21875 79.210938 136.851562 77.953125 Z M 108.1875 54.644531 "/>
<path style=" stroke:none;fill-rule:nonzero;fill:rgb(100%,100%,100%);fill-opacity:1;" d="M 111.96875 51.023438 L 79.371094 82.363281 L 72.597656 73.699219 C 69.765625 70.078125 65.667969 67.875 61.417969 67.558594 L 95.746094 34.332031 C 100.316406 29.921875 107.714844 30.078125 112.125 34.644531 C 114.015625 36.691406 115.117188 39.054688 115.277344 41.574219 C 115.746094 45.039062 114.488281 48.503906 111.96875 51.023438 Z M 111.96875 51.023438 "/>
<path style=" stroke:none;fill-rule:nonzero;fill:rgb(19.607843%,29.019609%,36.862746%);fill-opacity:1;" d="M 96.0625 103.621094 C 95.589844 103.621094 72.441406 112.285156 70.394531 123.78125 L 46.929688 93.859375 C 41.417969 86.773438 42.675781 76.535156 49.605469 71.023438 C 56.691406 65.511719 66.929688 66.773438 72.441406 73.859375 Z M 96.0625 103.621094 "/>
<path style=" stroke:none;fill-rule:nonzero;fill:rgb(100%,100%,100%);fill-opacity:1;" d="M 56.691406 159.210938 L 56.691406 162.675781 L 132.285156 162.675781 L 132.285156 159.210938 C 132.285156 155.90625 129.605469 153.070312 126.140625 153.070312 L 62.835938 153.070312 C 59.371094 153.226562 56.691406 155.90625 56.691406 159.210938 Z M 56.691406 159.210938 "/>
<path style=" stroke:none;fill-rule:nonzero;fill:rgb(19.607843%,29.019609%,36.862746%);fill-opacity:1;" d="M 63.621094 150.394531 L 63.621094 153.070312 L 125.355469 153.070312 L 125.355469 150.394531 C 125.355469 147.714844 123.148438 145.667969 120.316406 145.667969 L 68.660156 145.667969 C 65.828125 145.667969 63.621094 147.875 63.621094 150.394531 Z M 63.621094 150.394531 "/>
<path style=" stroke:none;fill-rule:nonzero;fill:rgb(100%,100%,100%);fill-opacity:1;" d="M 94.488281 103.464844 C 81.101562 103.464844 70.078125 114.488281 70.078125 127.875 L 70.078125 145.667969 L 118.898438 145.667969 L 118.898438 127.875 C 118.898438 114.488281 107.875 103.464844 94.488281 103.464844 Z M 94.488281 103.464844 "/>
<path style=" stroke:none;fill-rule:nonzero;fill:rgb(90.196079%,91.37255%,93.333334%);fill-opacity:1;" d="M 99.84375 127.558594 C 99.84375 124.601562 97.445312 122.203125 94.488281 122.203125 C 91.53125 122.203125 89.132812 124.601562 89.132812 127.558594 C 89.132812 130.515625 91.53125 132.914062 94.488281 132.914062 C 97.445312 132.914062 99.84375 130.515625 99.84375 127.558594 Z M 99.84375 127.558594 "/>
<path style=" stroke:none;fill-rule:nonzero;fill:rgb(67.450982%,70.19608%,72.941178%);fill-opacity:1;" d="M 69.292969 84.722656 C 69.292969 79.59375 65.132812 75.433594 60 75.433594 C 54.867188 75.433594 50.707031 79.59375 50.707031 84.722656 C 50.707031 89.855469 54.867188 94.015625 60 94.015625 C 65.132812 94.015625 69.292969 89.855469 69.292969 84.722656 Z M 69.292969 84.722656 "/>
<path style=" stroke:none;fill-rule:nonzero;fill:rgb(90.196079%,91.37255%,93.333334%);fill-opacity:1;" d="M 110.234375 43.464844 C 110.234375 39.8125 107.273438 36.851562 103.621094 36.851562 C 99.96875 36.851562 97.007812 39.8125 97.007812 43.464844 C 97.007812 47.117188 99.96875 50.078125 103.621094 50.078125 C 107.273438 50.078125 110.234375 47.117188 110.234375 43.464844 Z M 110.234375 43.464844 "/>
<path style=" stroke:none;fill-rule:nonzero;fill:rgb(19.607843%,29.019609%,36.862746%);fill-opacity:1;" d="M 152.285156 110.078125 C 152.285156 114.015625 151.8125 118.425781 150.867188 122.046875 L 147.085938 122.046875 L 147.085938 113.699219 C 148.503906 113.070312 149.449219 111.8125 149.449219 110.234375 C 149.449219 108.1875 147.714844 106.457031 145.667969 106.457031 C 143.621094 106.457031 141.890625 108.1875 141.890625 110.234375 C 141.890625 111.8125 142.835938 113.226562 144.253906 113.699219 L 144.253906 122.046875 L 140.472656 122.046875 C 139.527344 118.269531 139.054688 114.015625 139.054688 110.078125 C 139.054688 107.402344 139.210938 105.355469 139.683594 103.621094 L 151.496094 103.621094 C 151.96875 105.355469 152.285156 107.558594 152.285156 110.078125 Z M 152.285156 110.078125 "/>
<path style=" stroke:none;fill-rule:nonzero;fill:rgb(100%,100%,100%);fill-opacity:1;" d="M 154.171875 103.621094 C 155.589844 98.898438 156.378906 93.226562 156.378906 88.1875 C 156.378906 76.0625 151.496094 72.597656 145.667969 72.597656 C 139.683594 72.597656 134.960938 76.0625 134.960938 88.1875 C 134.960938 93.226562 135.746094 98.898438 137.164062 103.621094 Z M 154.171875 103.621094 "/>
<path style=" stroke:none;fill-rule:nonzero;fill:rgb(90.196079%,91.37255%,93.333334%);fill-opacity:1;" d="M 149.292969 84.566406 C 149.292969 82.566406 147.667969 80.945312 145.667969 80.945312 C 143.667969 80.945312 142.046875 82.566406 142.046875 84.566406 C 142.046875 86.566406 143.667969 88.1875 145.667969 88.1875 C 147.667969 88.1875 149.292969 86.566406 149.292969 84.566406 Z M 149.292969 84.566406 "/>
</g>
</svg>
